<?xml version="1.0" encoding="iso-8859-1"?>
<!-- Generator: Adobe Illustrator 21.0.0, SVG Export Plug-In . SVG Version: 6.00 Build 0)  -->
<svg version="1.1" id="Capa_1" xmlns="http://www.w3.org/2000/svg" xmlns:xlink="http://www.w3.org/1999/xlink" x="0px" y="0px"
	 viewBox="0 0 512 512" style="enable-background:new 0 0 512 512;" xml:space="preserve">
<path style="fill:#F2F3F3;" d="M103.436,504.516c0-84.259,68.305-152.563,152.563-152.563s152.563,68.304,152.563,152.563H103.436z"
	/>
<g>
	<path style="fill:#E8E9EA;" d="M275.856,353.238c-6.5-0.845-13.126-1.285-19.857-1.285c-84.258,0-152.563,68.305-152.563,152.563
		h39.713C143.149,426.987,200.979,362.97,275.856,353.238z"/>
	<path style="fill:#E8E9EA;" d="M255.999,351.953H199.43v34.058c0,0,21.578,13.296,56.569,13.296s56.569-13.296,56.569-13.296
		v-34.058H255.999z"/>
</g>
<path style="fill:#D0D1D2;" d="M199.43,386.011c0,0,21.577,13.296,56.569,13.296v-47.355H199.43V386.011z"/>
<circle style="fill:#FFCE71;" cx="280.498" cy="450.404" r="19.596"/>
<g>
	<circle style="fill:#DDC1A5;" cx="412.402" cy="221.737" r="32.539"/>
	<circle style="fill:#DDC1A5;" cx="99.592" cy="221.737" r="32.539"/>
</g>
<g>
	<circle style="fill:#F5D7B7;" cx="255.997" cy="212.607" r="164.145"/>
	<circle style="fill:#F5D7B7;" cx="255.997" cy="212.607" r="164.145"/>
</g>
<path style="fill:#E9CCAE;" d="M255.999,48.457c-90.656,0-164.146,73.491-164.146,164.146c0,90.656,73.49,164.146,164.146,164.146
	c7.276,0,14.439-0.479,21.465-1.397c-72.239-9.435-129.701-65.839-140.749-137.558c7.375-4.267,13.98-9.71,19.587-16.057h199.321
	c14.401,16.285,35.438,26.569,58.834,26.569c0.584,0,1.181-0.011,1.789-0.027c2.546-11.487,3.9-23.423,3.9-35.676
	C420.145,121.948,346.655,48.457,255.999,48.457z"/>
<path style="fill:#4A5359;" d="M255.999,48.457c-90.656,0-164.146,73.491-164.146,164.146c0,7.053,0.446,14.002,1.309,20.822
	c1.436,0.097,2.881,0.163,4.341,0.163c35.249,0,63.824-28.575,63.824-63.824h189.305c0,35.249,28.575,63.824,63.824,63.824
	c1.474,0,2.931-0.068,4.38-0.166c0.863-6.818,1.309-13.766,1.309-20.819C420.145,121.948,346.655,48.457,255.999,48.457z"/>
<rect x="92.082" y="98.333" style="fill:#FFCE71;" width="328.07" height="104.063"/>
<g>
	<circle style="fill:#E8E9EA;" cx="159.554" cy="81.949" r="74.452"/>
	<circle style="fill:#E8E9EA;" cx="351.96" cy="81.949" r="74.452"/>
</g>
<circle style="fill:#F2F3F3;" cx="255.997" cy="91.653" r="84.153"/>
<path d="M280.492,423.298c-14.939,0-27.095,12.154-27.095,27.095s12.154,27.095,27.095,27.095c14.94,0,27.095-12.154,27.095-27.095
	S295.432,423.298,280.492,423.298z M280.492,462.486c-6.669,0-12.094-5.425-12.094-12.094s5.425-12.094,12.094-12.094
	c6.669,0,12.094,5.425,12.094,12.094S287.161,462.486,280.492,462.486z"/>
<path d="M420.717,260.903c18.298-3.866,31.724-20.154,31.724-39.165c0-16.479-9.943-30.953-24.795-37.032V113.35
	c4.03-9.677,6.266-20.282,6.266-31.401C433.912,36.762,397.149,0,351.964,0c-16.863,0-32.826,5.001-46.516,14.488
	C290.771,5.085,273.609,0,255.999,0c-18.299,0-35.36,5.394-49.684,14.67C192.659,5.185,176.266,0,159.553,0
	c-45.187,0-81.949,36.762-81.949,81.949c0,11.714,2.488,22.852,6.936,32.94v69.741c-14.955,6.034-24.982,20.562-24.982,37.109
	c0,19.141,13.382,35.322,31.726,39.171c13.303,45.286,44.81,82.858,86.026,104.209c-49.822,28.2-81.365,81.533-81.365,139.38
	c0,4.142,3.357,7.5,7.5,7.5h305.11c4.143,0,7.5-3.358,7.5-7.5c0-57.853-31.542-111.181-81.366-139.38
	C375.907,343.767,407.414,306.193,420.717,260.903z M412.604,209.903c0.015,0.901,0.041,1.803,0.041,2.7
	c0,4.523-0.204,8.999-0.582,13.426c-13.987-0.604-27.222-6.473-37.086-16.128h37.627V209.903z M437.44,221.738
	c0,9.188-5.021,17.343-12.573,21.698c0.535-2.936,0.998-5.897,1.381-8.883c0.015-0.1,0.027-0.202,0.038-0.303
	c0.896-7.091,1.36-14.315,1.36-21.647c0-2.799-0.088-5.616-0.223-8.415c0.14-0.573,0.223-1.169,0.223-1.785v-0.551
	C433.681,206.47,437.44,213.725,437.44,221.738z M300.376,29.042c0.51,0.5,1.076,0.919,1.684,1.246
	c15.265,11.438,26.168,28.519,29.53,48.598c0.685,4.085,4.54,6.842,8.637,6.158c4.085-0.684,6.842-4.551,6.158-8.636
	c-3.352-20.015-13.375-38.416-28.338-52.194C328.271,18.17,339.832,15,351.964,15c36.915,0,66.947,30.033,66.947,66.948
	s-30.032,66.948-66.947,66.948c-7.5,0-14.764-1.207-21.696-3.588c8.208-11.353,13.784-24.492,16.118-38.42
	c0.684-4.085-2.073-7.952-6.158-8.636c-4.094-0.686-7.952,2.073-8.637,6.158c-2.453,14.648-8.925,27.697-18.168,38.13
	c-0.527,0.436-0.996,0.952-1.397,1.536c-14.058,15.025-34.044,24.219-56.027,24.219c-42.264,0-76.648-34.384-76.648-76.648
	S213.735,15,255.999,15C272.458,15,287.803,20.149,300.376,29.042z M159.553,15c12.267,0,23.942,3.235,34.244,9.406
	c-18.097,16.753-29.446,40.694-29.446,67.241c0,19.963,6.42,38.452,17.298,53.521c-7.05,2.472-14.447,3.727-22.096,3.727
	c-36.915,0-66.948-30.033-66.948-66.948S122.638,15,159.553,15z M159.553,163.897c11.161,0,22.275-2.308,32.466-6.697
	c16.529,16.137,39.111,26.098,63.98,26.098c21.812,0,42.943-7.792,59.505-21.943c1.501-1.282,2.94-2.624,4.348-3.994
	c10.135,4.335,20.911,6.536,32.112,6.536c24.031,0,45.678-10.399,60.682-26.932v57.937H99.54v-57.23
	C114.515,153.788,135.87,163.897,159.553,163.897z M99.352,212.603c0-0.896,0.026-1.799,0.042-2.7h37.588
	c-9.855,9.645-23.075,15.511-37.048,16.126C99.556,221.601,99.352,217.126,99.352,212.603z M74.557,221.738
	c0-8.094,3.84-15.408,9.981-20.021v0.685c0,0.335,0.03,0.662,0.072,0.985c-0.162,3.067-0.26,6.157-0.26,9.215
	c0,7.336,0.465,14.566,1.362,21.663c0.011,0.097,0.022,0.193,0.036,0.289c0.384,2.991,0.848,5.958,1.385,8.899
	C79.569,239.12,74.557,230.992,74.557,221.738z M305.064,377.093v4.395c-6.362,3.056-20.965,8.894-41.564,10.088v-7.5
	C277.88,383.455,291.804,381.055,305.064,377.093z M248.499,391.573c-20.467-1.205-35.167-7.057-41.564-10.105v-4.375
	c13.259,3.962,27.185,6.362,41.564,6.984V391.573z M191.933,374.338v11.663c0,2.603,1.35,5.02,3.565,6.385
	c0.587,0.362,9.457,5.72,24.717,9.798v94.814H111.139C113.862,444.764,144.854,397.558,191.933,374.338z M400.858,497H235.216
	v-91.724c6.3,0.932,13.244,1.522,20.783,1.522c36.692,0,59.545-13.822,60.5-14.41c2.216-1.366,3.565-3.782,3.565-6.385v-11.663
	C367.145,397.558,398.136,444.761,400.858,497z M255.999,369.25c-76.699,0-140.694-55.412-154.071-128.304
	c21.878-1.381,42.154-12.922,54.533-31.043h199.037c12.386,18.131,32.679,29.675,54.572,31.044
	C396.692,313.838,332.697,369.25,255.999,369.25z"/>
<path d="M276.497,259.685c-3.589-2.064-8.175-0.828-10.24,2.764c-2.107,3.665-6.037,5.941-10.257,5.941s-8.149-2.277-10.257-5.942
	c-2.065-3.59-6.649-4.828-10.24-2.764c-3.591,2.064-4.828,6.649-2.764,10.24c4.775,8.306,13.688,13.465,23.262,13.465
	c9.573,0,18.486-5.159,23.262-13.464C281.325,266.335,280.088,261.75,276.497,259.685z"/>
<path d="M319.69,227.756c-4.143,0-7.5,3.358-7.5,7.5v11.355c0,4.142,3.357,7.5,7.5,7.5c4.143,0,7.5-3.358,7.5-7.5v-11.355
	C327.19,231.114,323.833,227.756,319.69,227.756z"/>
<path d="M192.307,227.756c-4.143,0-7.5,3.358-7.5,7.5v11.355c0,4.142,3.357,7.5,7.5,7.5c4.143,0,7.5-3.358,7.5-7.5v-11.355
	C199.807,231.114,196.45,227.756,192.307,227.756z"/>
<g>
	<path style="fill:#F27F6F;" d="M325.368,275.579h-11.355c-4.143,0-7.5-3.358-7.5-7.5c0-4.142,3.357-7.5,7.5-7.5h11.355
		c4.143,0,7.5,3.358,7.5,7.5C332.868,272.221,329.511,275.579,325.368,275.579z"/>
	<path style="fill:#F27F6F;" d="M197.985,275.579H186.63c-4.143,0-7.5-3.358-7.5-7.5c0-4.142,3.357-7.5,7.5-7.5h11.355
		c4.143,0,7.5,3.358,7.5,7.5C205.485,272.221,202.128,275.579,197.985,275.579z"/>
</g>
<g>
</g>
<g>
</g>
<g>
</g>
<g>
</g>
<g>
</g>
<g>
</g>
<g>
</g>
<g>
</g>
<g>
</g>
<g>
</g>
<g>
</g>
<g>
</g>
<g>
</g>
<g>
</g>
<g>
</g>
</svg>
