<svg id="cake-stand" enable-background="new 0 0 300 300" height="512" viewBox="0 0 300 300" width="512" xmlns="http://www.w3.org/2000/svg"><g><circle cx="42.365" cy="140.927" fill="#4c241d" r="4.276"/><circle cx="157.359" cy="136" fill="#edebdc" r="92"/><g fill="#4c241d"><path d="m57.359 52c-2.209 0-4-1.791-4-4v-8c0-2.209 1.791-4 4-4s4 1.791 4 4v8c0 2.209-1.791 4-4 4z"/><path d="m57.359 76c-2.209 0-4-1.791-4-4v-8c0-2.209 1.791-4 4-4s4 1.791 4 4v8c0 2.209-1.791 4-4 4z"/><path d="m49.359 60h-8c-2.209 0-4-1.791-4-4s1.791-4 4-4h8c2.209 0 4 1.791 4 4s-1.791 4-4 4z"/><path d="m73.359 60h-8c-2.209 0-4-1.791-4-4s1.791-4 4-4h8c2.209 0 4 1.791 4 4s-1.791 4-4 4z"/><path d="m243.359 136c-7.719 0-14-6.281-14-14s6.281-14 14-14 14 6.281 14 14-6.281 14-14 14zm0-20c-3.309 0-6 2.691-6 6s2.691 6 6 6 6-2.691 6-6-2.691-6-6-6z"/></g><g><path d="m69.359 230.57v11.43c0 9.941 36.713 18 82 18s82-8.059 82-18v-11.856" fill="#ffded5"/><path d="m151.359 264c-29.746 0-86-4.598-86-22v-11.43c0-2.209 1.791-4 4-4s4 1.791 4 4v11.43c0 4.188 26.537 14 78 14s78-9.812 78-14v-11.855c0-2.209 1.791-4 4-4s4 1.791 4 4v11.855c0 17.402-56.254 22-86 22z" fill="#4c241d"/></g><circle cx="258.365" cy="196.927" fill="#4c241d" r="4.276"/><g><path d="m213.359 166v12c0 7.266-27.758 13.155-62 13.155s-62-5.89-62-13.155v-12" fill="#ffded5"/><path d="m151.359 195.156c-6.756 0-66-.48-66-17.156v-12c0-2.209 1.791-4 4-4s4 1.791 4 4v12c1.756 3.039 22.727 9.156 58 9.156s56.244-6.117 58.074-9.543l-.074-11.613c0-2.209 1.791-4 4-4s4 1.791 4 4v12c0 16.676-59.244 17.156-66 17.156z" fill="#4c241d"/></g><g><ellipse cx="151.359" cy="230" fill="#fff" rx="82" ry="18"/><path d="m151.359 252c-29.746 0-86-4.598-86-22s56.254-22 86-22 86 4.598 86 22-56.254 22-86 22zm0-36c-51.463 0-78 9.812-78 14s26.537 14 78 14 78-9.812 78-14-26.537-14-78-14z" fill="#4c241d"/></g><g><ellipse cx="151.359" cy="166" fill="#fff" rx="62" ry="13.155"/><path d="m151.359 183.156c-6.756 0-66-.48-66-17.156s59.244-17.156 66-17.156 66 .48 66 17.156-59.244 17.156-66 17.156zm-57.797-17.156c3.107 3.479 23.814 9.156 57.797 9.156s54.689-5.678 57.797-9.156c-3.107-3.479-23.814-9.156-57.797-9.156s-54.689 5.677-57.797 9.156zm115.871.387h.041z" fill="#4c241d"/></g><g><ellipse cx="151.359" cy="106" fill="#fff" rx="42.771" ry="9.389"/><path d="m151.359 119.389c-7.811 0-46.771-.646-46.771-13.389s38.961-13.389 46.771-13.389 46.771.646 46.771 13.389-38.96 13.389-46.771 13.389zm-37.852-13.389c3.994 2.209 16.967 5.389 37.852 5.389s33.857-3.18 37.852-5.389c-3.994-2.209-16.967-5.389-37.852-5.389s-33.857 3.18-37.852 5.389zm76.854.865h.041z" fill="#4c241d"/></g><path d="m149.359 168c-2.209 0-4-1.791-4-4v-48c0-2.209 1.791-4 4-4s4 1.791 4 4v48c0 2.209-1.791 4-4 4z" fill="#4c241d"/><path d="m149.359 108c-2.209 0-4-1.791-4-4v-36c0-2.209 1.791-4 4-4s4 1.791 4 4v36c0 2.209-1.791 4-4 4z" fill="#4c241d"/><path d="m149.359 232c-2.209 0-4-1.791-4-4v-34.705c0-2.209 1.791-4 4-4s4 1.791 4 4v34.705c0 2.209-1.791 4-4 4z" fill="#4c241d"/><path d="m149.359 72c-6.617 0-12-5.383-12-12s5.383-12 12-12 12 5.383 12 12-5.383 12-12 12zm0-16c-2.205 0-4 1.795-4 4s1.795 4 4 4 4-1.795 4-4-1.795-4-4-4z" fill="#4c241d"/></g></svg>